<svg width="1000" height="1000" viewBox="0 0 1000 1000" fill="none" xmlns="http://www.w3.org/2000/svg">
<path d="M751.11 375H248.89C111.432 375 0 486.929 0 625V625C0 763.071 111.432 875 248.89 875H751.11C888.568 875 1000 763.071 1000 625V625C1000 486.929 888.568 375 751.11 375Z" fill="#FFDEC1"/>
<path d="M491.667 625C629.738 625 741.667 513.071 741.667 375C741.667 236.929 629.738 125 491.667 125C353.596 125 241.667 236.929 241.667 375C241.667 513.071 353.596 625 491.667 625Z" fill="#FFBC90"/>
<path d="M750 875C888.071 875 1000 763.071 1000 625C1000 486.929 888.071 375 750 375C611.929 375 500 486.929 500 625C500 763.071 611.929 875 750 875Z" fill="#FF8638"/>
<g clip-path="url(#clip0_624_4912)">
<path d="M551.703 292.164C557.512 325.487 550.313 362.95 533.879 365.878C517.495 368.857 498.132 336.191 492.323 302.868C486.514 269.495 496.444 248.037 512.878 245.109C529.311 242.13 545.894 258.791 551.703 292.164Z" fill="#FF7B00"/>
<path d="M402.06 367.948C419.636 382.439 453.397 372.795 462.135 351.943L462.235 351.792C463.426 348.914 466.703 347.551 469.583 348.762C472.016 349.873 473.356 352.499 472.86 355.124C470.03 369.867 458.163 386.831 444.113 392.536C434.878 396.273 423.657 393.95 414.671 390.416C406.727 387.285 399.726 382.287 394.265 376.077C392.179 373.754 392.378 370.119 394.712 368.049C396.797 366.181 399.825 366.131 402.06 367.948Z" fill="#FF7B00"/>
<path d="M348.488 328.163C356.134 361.132 350.97 398.949 334.785 402.786C318.549 406.673 297.448 375.219 289.802 342.199C282.156 309.23 290.944 287.267 307.18 283.379C323.365 279.492 340.892 295.194 348.488 328.113V328.163Z" fill="#FF7B00"/>
</g>
<defs>
<clipPath id="clip0_624_4912">
<rect width="266.667" height="158.333" fill="white" transform="translate(287.022 244.755)"/>
</clipPath>
</defs>
</svg>
