<svg width="1206" height="367" viewBox="0 0 1206 367" fill="none" xmlns="http://www.w3.org/2000/svg">
<g clip-path="url(#clip0_29_2)">
<path d="M307.409 156.623H101.864C45.6061 156.623 0 203.095 0 260.421V260.421C0 317.747 45.6061 364.219 101.864 364.219H307.409C363.667 364.219 409.273 317.747 409.273 260.421V260.421C409.273 203.095 363.667 156.623 307.409 156.623Z" fill="#FFDEC1"/>
<path d="M204.632 260.422C261.141 260.422 306.95 213.95 306.95 156.624C306.95 99.2976 261.141 52.8257 204.632 52.8257C148.123 52.8257 102.314 99.2976 102.314 156.624C102.314 213.95 148.123 260.422 204.632 260.422Z" fill="#FFBC90"/>
<path d="M306.957 364.219C363.466 364.219 409.275 317.747 409.275 260.421C409.275 203.095 363.466 156.623 306.957 156.623C250.448 156.623 204.639 203.095 204.639 260.421C204.639 317.747 250.448 364.219 306.957 364.219Z" fill="#FF8638"/>
<path d="M572.408 53.8942C588.446 53.8942 602.986 60.307 612.531 71.7916L595.175 85.9219C589.764 79.5089 581.303 75.981 572.408 75.981C555.488 75.981 540.534 88.127 540.534 107.347C540.534 126.567 555.488 139.595 572.408 139.595C581.303 139.595 589.764 135.847 595.175 129.434L612.746 143.344C603.202 154.828 588.681 161.462 572.408 161.462C543.347 161.462 518.416 140.036 518.416 107.347C518.416 74.6581 543.347 53.8942 572.408 53.8942Z" fill="white"/>
<path d="M623.374 0H645.707V159.257H623.374V0Z" fill="white"/>
<path d="M657.409 107.347C657.409 74.6581 681.475 53.8942 710.105 53.8942C738.951 53.8942 763.232 74.6581 763.232 107.347C763.232 140.036 738.951 161.462 710.105 161.462C681.475 161.462 657.409 140.036 657.409 107.347ZM740.899 107.347C740.899 88.3475 727.024 76.2014 710.105 76.2014C693.401 76.2014 679.526 88.3475 679.526 107.347C679.526 126.788 693.401 139.375 710.105 139.375C727.024 139.375 740.899 126.788 740.899 107.347Z" fill="white"/>
<path d="M844.186 56.0993H866.519V159.257H844.186V144.244C838.323 155.949 824.667 161.48 814.042 161.48C789.327 161.48 774.571 145.347 774.787 116.204V56.1177H797.12V113.54C797.12 130.555 806.012 139.375 818.154 139.375C831.16 139.375 844.167 132.08 844.167 111.537V56.0993H844.186Z" fill="white"/>
<path d="M963.248 144.244C956.953 155.288 942.863 161.48 928.991 161.48C901.662 161.48 878.462 140.275 878.462 107.807C878.462 74.6762 901.662 53.9123 928.991 53.9123C943.297 53.9123 956.972 59.6456 963.248 70.9278V0H985.365V159.257H963.248V144.244ZM931.804 75.981C914.885 75.981 901.444 88.3472 901.444 107.347C901.444 126.347 914.885 139.375 931.804 139.375C948.293 139.375 962.816 127.449 962.816 107.347C962.816 87.0243 946.977 75.981 931.804 75.981Z" fill="white"/>
<path d="M540.749 364.776H518.416V205.52H540.749V277.312C546.397 264.725 562.217 259.414 572.842 259.414C598.64 259.414 613.829 276.65 613.829 306.014V364.759C610.149 364.759 595.175 364.759 591.497 364.759V307.354C591.497 291.22 581.518 281.739 568.945 281.739C556.154 281.739 540.749 289.035 540.749 309.359V364.776Z" fill="white"/>
<path d="M694.342 261.619H716.675V364.776H694.342V349.765C688.479 361.47 674.823 367 664.198 367C639.483 367 624.727 350.866 624.943 321.723V261.638H647.276V319.059C647.276 336.075 656.171 344.894 668.31 344.894C681.316 344.894 694.323 337.601 694.323 317.057V261.619H694.342Z" fill="white"/>
<path d="M822.306 309.339V364.776H799.974V306.915C799.758 291 791.297 281.739 779.371 281.739C766.364 281.739 753.791 289.254 753.791 309.359V364.795H731.458V261.619H753.791V277.073C760.519 262.722 777.641 259.396 785.668 259.396C801.723 259.396 811.916 266.911 817.545 279.94C827.087 262.042 842.257 259.396 851.586 259.396C876.516 259.396 890.623 275.97 890.623 305.333V364.759H868.29V307.354C868.29 291.223 859.829 281.739 846.822 281.739C832.047 281.723 822.306 292.766 822.306 309.339Z" fill="white"/>
<path d="M986.658 349.985C979.93 361.248 965.19 367 952.617 367C925.289 367 901.223 346.017 901.223 313.107C901.223 280.196 925.289 259.433 952.617 259.433C964.759 259.433 979.73 264.504 986.658 276.228V261.656H1008.78V364.815H986.658V349.985ZM955.215 344.894C971.703 344.894 986.443 333.189 986.443 312.867C986.443 292.543 970.388 281.5 955.215 281.5C938.295 281.5 924.205 293.867 924.205 312.867C924.205 331.868 938.295 344.894 955.215 344.894Z" fill="white"/>
<path d="M1046.26 364.776H1023.93V261.619H1046.26V277.073C1052.12 265.147 1065.99 259.396 1077.27 259.396C1101.77 259.396 1115.87 275.511 1115.87 304.671V364.759H1093.54V307.354C1093.54 291 1085.3 281.739 1072.29 281.739C1059.07 281.739 1046.26 289.035 1046.26 309.359V364.776Z" fill="white"/>
<path d="M1129.66 286.591C1130.96 271.358 1147.23 259.414 1165.88 259.414C1183.88 259.414 1201.44 267.812 1202.73 289.899H1181.48C1180.62 282.162 1173.67 278.856 1166.74 278.856C1161.1 278.856 1154.61 281.061 1152.44 284.606C1150.71 287.472 1150.49 290.8 1151.57 293.886C1152.87 297.854 1158.52 300.298 1163.93 301.844L1179.54 305.811C1201.44 311.341 1206 325.473 1206 335.855C1206 355.737 1188.86 367 1165.66 367C1146.79 367 1127.27 354.856 1126.84 333.208H1147.44C1148.52 342.047 1155.69 347.999 1167.39 347.999C1177.59 347.999 1185.4 343.351 1185.4 335.635C1185.4 329.002 1178.67 325.251 1171.31 323.488L1157.65 320.18C1136.17 314.191 1128.36 303.148 1129.66 286.591Z" fill="white"/>
</g>
<defs>
<clipPath id="clip0_29_2">
<rect width="1206" height="367" fill="white"/>
</clipPath>
</defs>
</svg>
